<svg version="1.1" id="Layer_1" xmlns="http://www.w3.org/2000/svg" xmlns:xlink="http://www.w3.org/1999/xlink" x="0px" y="0px"
	 viewBox="0 0 122.358 122.423" style="enable-background:new 0 0 122.358 122.423;" xml:space="preserve">
	<style>
	    #vrd_logo_wireframe {
	   		stroke: white;
	    }
	    .wire {
	    	stroke: white;
	    }
	 </style>
	<g>
		<path id="vrd_logo_wireframe" style="fill:none;stroke-width:2;stroke-miterlimit:10;" d="M102.115,83.1
			c-2.987-2.987-1.06-7.805,3.051-7.805h2.221c7.58,0,13.972-6.56,13.972-14.14c0-7.419-6.263-13.321-13.683-13.321h-2.221
			c-4.143,0-6.745-4.368-2.826-8.287l13.683-13.618c5.364-5.364,5.364-14.068,0-19.432s-14.132-5.428-19.432,0L83.132,20.179
			c-2.987,2.987-8.19,0.899-8.19-3.116V14.49C74.942,6.974,68.655,1,61.171,1c-7.58,0-13.723,6.038-13.723,13.586v2.477
			c0,4.175-5.171,6.103-8.19,3.083L25.607,6.497c-5.396-5.332-14.068-5.364-19.432,0s-5.364,14.068,0,19.432l13.618,13.651
			c2.987,2.987,1.06,8.255-2.955,8.255h-2.188C7.135,47.834,1,53.607,1,61.155c0,7.58,5.942,14.14,13.522,14.14h2.317
			c4.015,0,6.392,4.882,3.405,7.869L6.175,97.201c-5.364,5.364-5.364,13.618,0,18.982c5.846,5.846,14.454,5.364,19.817,0
			l13.683-13.651c3.18-3.18,7.773-1.67,7.773,3.083v2.156c0,7.452,4.601,13.651,13.723,13.651c8.897,0,13.739-6.263,13.739-13.651
			v-2.156c0-4.657,4.754-6.231,7.837-3.148l13.618,13.618c5.364,5.364,14.1,5.781,19.785,0.096
			c5.364-5.364,5.268-13.843-0.096-19.207L102.115,83.1z M83.068,56.345h7.965c2.698,0,4.914,2.112,4.85,4.81
			c0,2.666-2.184,4.826-4.85,4.81h-7.965c-3.726,0.016-5.589,4.513-2.955,7.146l14.132,14.1c1.927,1.927,2.216,5.396,0.257,7.291
			c-2.12,2.023-5.171,1.51-7.259-0.578l-14.1-14.1c-2.634-2.634-7.13-0.771-7.114,2.955v7.516c0.048,2.955-1.646,5.332-4.858,5.332
			c-2.955,0-4.762-2.441-4.762-5.332v-7.323c0-3.726-4.593-5.557-7.259-2.955L34.665,94.31c-1.542,1.542-4.754,2.248-6.777,0.064
			c-1.895-1.895-1.863-4.978,0.032-6.841l14.454-14.421c2.634-2.634,0.771-7.13-2.923-7.146l-8.094,0.016
			c-2.698,0-4.946-2.16-4.85-4.826c0.096-2.602,2.28-4.778,4.946-4.778l7.998-0.032c3.726,0,5.589-4.593,2.955-7.227L28.209,34.922
			c-1.927-1.927-2.216-5.332-0.257-7.195c2.088-1.991,5.203-1.542,7.291,0.546l13.908,13.908c2.634,2.634,7.227,0.771,7.227-2.955
			v-7.612c0-2.794,1.261-5.364,4.794-5.364c3.469,0,4.874,2.184,4.858,5.364v7.805c0.016,3.726,4.481,5.589,7.114,2.955l14.132-14.1
			c2.12-2.12,5.107-2.505,7.227-0.578c1.959,1.959,1.702,5.332-0.289,7.323l-14.1,14.1C77.48,51.752,79.342,56.345,83.068,56.345z"/>
		<line class="wire" style="fill:none;stroke-miterlimit:10;" x1="27.952" y1="27.727" x2="6.175" y2="6.497"/>
		<line class="wire" style="fill:none;stroke-miterlimit:10;" x1="61.171" y1="26.25" x2="61.171" y2="1"/>
		<line class="wire" style="fill:none;stroke-miterlimit:10;" x1="94.503" y1="27.695" x2="116.311" y2="6.497"/>
		<line class="wire" style="fill:none;stroke-miterlimit:10;" x1="95.884" y1="61.155" x2="121.358" y2="61.155"/>
		<line class="wire" style="fill:none;stroke-miterlimit:10;" x1="94.503" y1="94.503" x2="116.151" y2="116.183"/>
		<line class="wire" style="fill:none;stroke-miterlimit:10;" x1="61.171" y1="95.627" x2="61.171" y2="121.423"/>
		<line class="wire" style="fill:none;stroke-miterlimit:10;" x1="27.888" y1="94.374" x2="6.175" y2="116.183"/>
		<line class="wire" style="fill:none;stroke-miterlimit:10;" x1="26.507" y1="61.155" x2="1" y2="61.155"/>
	</g>
</svg>